#!OML:ASF E:/inclinewalkrobotboard/Project1/Captureday1/Session1/subject1.ASF
:FULLY-SPECIFIED
:DEGREES
38
root 0 0 0 1.8451662554669608 -3.897412173598092 2.176833117249724
lowerback 11.987607712262086 1.166068120672222 -0.09572374897280655
upperback -4.457237633098151 1.4660704937861135 -0.8561760594591022
thorax -11.567409390169532 0.6789584848739334 -1.1365885074302438
lowerneck -6.239855091179639 1.7524541132781677 4.833280256850892
upperneck 18.177710896254947 3.2858120593809605 -8.488936007029764
head 6.698171250452953 1.222549528405592 -3.2933323187974475
rclavicle -2.1542924480001927E-15 -1.103700759509549E-15
rhumerus 23.266614410544058 17.851065043364564 -48.50451207530418
rradius 74.9062660969432
rwrist 25.809501804228134
rhand -34.81953249160635 -58.10486265648118
rfingers 7.12502
rthumb -7.962290894534293 -88.01537962432828
lclavicle -1.1189628428600703E-15 -8.427781808811181E-16
lhumerus 22.435257123592955 -14.543868662991127 45.765158308474774
lradius 71.33984819256827
lwrist -21.387303868519147
lhand -45.27276664345099 -69.02755414240235
lfingers 7.125020000000012
lthumb -18.046926763014618 -39.77942121536334
rfemur -24.532395084570087 -0.7921963370862692 18.59502986692907
rtibia 44.95721531285764
rfoot -33.012822873116576 -17.877329524846637
rtoes -23.027337785638192
lfemur -26.60387789789531 1.8328435733885655 -15.420943739358423
ltibia 44.97828704852938
lfoot -32.27175401782851 3.3558735981833117
ltoes -21.47474319112193
39
root 0 0 0 1.8457551064639253 -3.897517603234905 2.1775208881435915
lowerback 11.987046457161474 1.1661989976856737 -0.0963984610873917
upperback -4.457202759397858 1.4661480250895045 -0.8564127276588128
thorax -11.56699167294357 0.6790099892541201 -1.1364597249472022
lowerneck -6.240082148476775 1.7522629253263535 4.83291675715855
upperneck 18.17742385531435 3.285472695096698 -8.488281171493327
head 6.6981244981350345 1.2224338479745693 -3.293099441213868
rclavicle -2.1513597194091207E-15 -1.1029053583090369E-15
rhumerus 23.26934243071866 17.855102816544445 -48.50745295187582
rradius 74.9084869451845
rwrist 25.80631676136182
rhand -34.81941481395736 -58.104021169606156
rfingers 7.12502
rthumb -7.962199095400834 -88.01440830427346
lclavicle -1.1151956113859794E-15 -8.418343414988995E-16
lhumerus 22.43556827242248 -14.545255854689133 45.76588928398847
lradius 71.34039715746287
lwrist -21.38624092229032
lhand -45.27254815379338 -69.02527563382895
lfingers 7.125020000000012
lthumb -18.046707345226125 -39.77723888488117
rfemur -24.533163376843632 -0.7892013261543527 18.59674226958935
rtibia 44.935616156511365
rfoot -33.022788415622024 -17.879647388497506
rtoes -23.035515880618167
lfemur -26.59023197163255 1.8253744557248064 -15.434946962241558
ltibia 44.902711637445826
lfoot -32.316203424699495 3.387101115031733
ltoes -21.473151235701742
40
root 0 0 0 1.8461682390882506 -3.896350493855243 2.1790936701280046
lowerback 11.986320774152562 1.16567891562299 -0.09824007358173803
upperback -4.4572973227930275 1.465210549261406 -0.8565576612004883
thorax -11.566590129572543 0.6786047536016646 -1.1354371214775325
lowerneck -6.239885600619072 1.7522581509751 4.832646309283291
upperneck 18.177373428595175 3.285477211924589 -8.487964347692033
head 6.698081255231203 1.2224487469140128 -3.292972398618706
rclavicle -2.148897365943785E-15 -1.101381030042727E-15
rhumerus 23.269539789612324 17.85588138630876 -48.50851779108048
rradius 74.90859398621113
rwrist 25.80523465482547
rhand -34.8191984040151 -58.103053444905704
rfingers 7.12502
rthumb -7.961979098983463 -88.0133034531922
lclavicle -1.1128037849370234E-15 -8.396620992390606E-16
lhumerus 22.435360762604127 -14.545758896523424 45.76638048804962
lradius 71.34040202869512
lwrist -21.385641070474634
lhand -45.272373519572525 -69.02399749930603
lfingers 7.125020000000012
lthumb -18.046523664778782 -39.77579253954973
rfemur -24.537476892772272 -0.7889957228295192 18.594695932239635
rtibia 44.929636267265344
rfoot -33.02334371838715 -17.87975618511477
rtoes -23.043047824569776
lfemur -26.560976828178767 1.815630731332475 -15.452660818834396
ltibia 44.82168338987159
lfoot -32.35086952235782 3.410867534432553
ltoes -21.472869117301045
41
root 0 0 0 1.8466557594049053 -3.893218187847719 2.1773911896967553
lowerback 11.985652886194904 1.1641172476819914 -0.09842892375180368
upperback -4.457476911639932 1.4632136941864182 -0.8551840424295919
thorax -11.566443202530387 0.6776464673136117 -1.1335851178865184
lowerneck -6.239660551247477 1.7531609552412217 4.8335228702663695
upperneck 18.175594257500258 3.2868129952222027 -8.489345305157784
head 6.6974014748041295 1.2229977595137584 -3.293422990103954
rclavicle -2.1569890390773536E-15 -1.0939987437315794E-15
rhumerus 23.259353738564684 17.841319846231677 -48.49947182658258
rradius 74.8993330688904
rwrist 25.815363523685072
rhand -34.81881693817305 -58.10251449271039
rfingers 7.12502
rthumb -7.9619291364534135 -88.0138379769501
lclavicle -1.1140236364009535E-15 -8.33095289429337E-16
lhumerus 22.43697717384469 -14.545541997840449 45.764512160506854
lradius 71.34138592647545
lwrist -21.38778303869956
lhand -45.27243361074541 -69.02531705935257
lfingers 7.125020000000012
lthumb -18.04698840138218 -39.77813774145221
rfemur -24.532155247328404 -0.7759051246930162 18.61534009722442
rtibia 44.84837383684483
rfoot -33.07012475147933 -17.881411621310647
rtoes -23.042544085838284
lfemur -26.55997979500232 1.8195763603889854 -15.422813856698065
ltibia 44.91828817081613
lfoot -32.260183538702506 3.3550978878544644
ltoes -21.498069114450853
42
root 0 0 0 1.845879433126386 -3.89342783328718 2.1767556185237664
lowerback 11.985200001680417 1.1646542323392195 -0.09739390811355364
upperback -4.4576751461516 1.4640596340977512 -0.855362971740245
thorax -11.566312369074364 0.6779990235647166 -1.1345871896140705
lowerneck -6.2387386353990495 1.7527219580183602 4.833307513883794
upperneck 18.176677246038032 3.2862009421161 -8.488861142778122
head 6.697647199477971 1.2227442605340073 -3.293264707313387
rclavicle -2.148759422099499E-15 -1.1008930881584366E-15
rhumerus 23.262030871463494 17.84576186394188 -48.50257620975901
rradius 74.90229523096855
rwrist 25.81190865167246
rhand -34.81896984076329 -58.102920462155645
rfingers 7.12502
rthumb -7.96172436517587 -88.01344221226469
lclavicle -1.1132811741713249E-15 -8.399140498995582E-16
lhumerus 22.43510789938275 -14.54603161406336 45.76667955332191
lradius 71.34046546342987
lwrist -21.385365202734327
lhand -45.27217289742096 -69.02311116261151
lfingers 7.125020000000012
lthumb -18.04631757325376 -39.77485644706974
rfemur -24.515712841562422 -0.7765297342272777 18.61134510725723
rtibia 44.861526756276405
rfoot -33.051486147565726 -17.877630723894995
rtoes -23.055421728359676
lfemur -26.565223372332092 1.8197058341797678 -15.424196693737015
ltibia 44.910614849652674
lfoot -32.27059939727868 3.3596312729010016
ltoes -21.498648937157434
43
root 0 0 0 1.8456398119572475 -3.8939216379848935 2.1768184806061623
lowerback 11.98514463939654 1.1651131137784159 -0.09704486761510644
upperback -4.457663020961027 1.4646826283649346 -0.855675368248943
thorax -11.566291456207267 0.678290293954305 -1.1351949513086523
lowerneck -6.23872226082426 1.7525514290624817 4.833274081336846
upperneck 18.17692626902302 3.285894867036906 -8.488619995030476
head 6.697731565701892 1.2226242646964613 -3.29320650251712
rclavicle -2.1475805640506264E-15 -1.1014120005238341E-15
rhumerus 23.262139200789484 17.845936658101266 -48.502807032860446
rradius 74.90242643306385
rwrist 25.811692479040595
rhand -34.81891410341103 -58.10281077167849
rfingers 7.12502
rthumb -7.961691322115366 -88.0133325979659
lclavicle -1.1121319847547986E-15 -8.407315537812206E-16
lhumerus 22.434428762995765 -14.544675989956497 45.76623479345385
lradius 71.33960370408387
lwrist -21.38616563569302
lhand -45.272088272475656 -69.0239558744235
lfingers 7.125020000000012
lthumb -18.046242466334956 -39.77579638114804
rfemur -24.514704162955063 -0.7804893769928567 18.606257524307164
rtibia 44.88881515871313
rfoot -33.03366799894677 -17.874876194591373
rtoes -23.05188999630133
lfemur -26.563222879485313 1.8203166471153764 -15.42722436193507
ltibia 44.907694152272704
lfoot -32.2781497707186 3.362270508599451
ltoes -21.49900815540707
44
root 0 0 0 1.8453379088300288 -3.8936532064731795 2.177994045705497
lowerback 11.98520231484318 1.1650243069065633 -0.09795035737300095
upperback -4.457697253796656 1.4644105924570174 -0.855992410208457
thorax -11.566365850297352 0.6781891755164906 -1.1349613745335658
lowerneck -6.238539246891409 1.7525543770403191 4.833247920144711
upperneck 18.177309691997667 3.285911566980932 -8.488633819292561
head 6.697827701309848 1.222628809554584 -3.293218474039427
rclavicle -2.147415784248071E-15 -1.1012126471060063E-15
rhumerus 23.26155821451585 17.845257017363892 -48.502468363255474
rradius 74.90197761161289
rwrist 25.812087364175163
rhand -34.81885821746238 -58.10275136812379
rfingers 7.12502
rthumb -7.961629753156096 -88.01321840900101
lclavicle -1.1126381445377263E-15 -8.401454439901099E-16
lhumerus 22.433878780092826 -14.543462622928324 45.765800548082645
lradius 71.3388918099125
lwrist -21.38689263269307
lhand -45.27213982107961 -69.02523603055738
lfingers 7.125020000000012
lthumb -18.046293508524737 -39.776943588446045
rfemur -24.521960493249278 -0.7875156875929767 18.59696206628037
rtibia 44.930860337395345
rfoot -33.010203484957785 -17.87215120925913
rtoes -23.045908420257966
lfemur -26.54983129452293 1.8188774286452971 -15.436713169756104
ltibia 44.890563018172664
lfoot -32.28898051524367 3.3660916259907614
ltoes -21.495899157656076
45
root 0 0 0 1.8451737113742048 -3.890993557674918 2.1770278395563527
lowerback 11.98488061409668 1.1630817330466214 -0.0991647296059327
upperback -4.4581208370056675 1.4618246460133588 -0.8544843763376732
thorax -11.566652111878003 0.6769500652816538 -1.132413946347199
lowerneck -6.236916143759424 1.7537119855007883 4.83398442416712
upperneck 18.176057096015604 3.2877740764061656 -8.490400538625265
head 6.697109150364905 1.223387539731513 -3.293696579651354
rclavicle -2.1721651998947912E-15 -1.1112569622497672E-15
rhumerus 23.252728887427075 17.832216386816086 -48.4924023534919
rradius 74.89480414400485
rwrist 25.82193126830996
rhand -34.81948042078879 -58.104477308522895
rfingers 7.12502
rthumb -7.96231895594803 -88.01515913753332
lclavicle -1.121419962387553E-15 -8.357907268169408E-16
lhumerus 22.432626834639393 -14.544063429334773 45.76616128594212
lradius 71.33834701606465
lwrist -21.386164628389196
lhand -45.27216422747662 -69.02338920286826
lfingers 7.125020000000012
lthumb -18.0465691913349 -39.77493503895802
rfemur -24.53168186221314 -0.787166774593064 18.601752251512032
rtibia 44.92367935332189
rfoot -33.02349482158171 -17.87259781475587
rtoes -23.02917760296661
lfemur -26.557186028835822 1.8244090510984345 -15.408706442794877
ltibia 44.977051638007374
lfoot -32.201916117801325 3.3213470445827706
ltoes -21.505861352231367
